<?xml version="1.0" standalone="no"?>
<!DOCTYPE svg PUBLIC "-//W3C//DTD SVG 1.1//EN" "http://www.w3.org/Graphics/SVG/1.1/DTD/svg11.dtd">
<svg width="800" height="600" version="1.1" xmlns="http://www.w3.org/2000/svg">
<rect width="800" height="600" x="0" y="0" style="fill:rgb(238,238,238);stroke:none"/>
<rect width="800" height="600" x="0" y="0" style="fill:rgb(255,255,255);stroke:none"/>
<text x="2" y="566" fill="rgb(0,0,0)" font-family="Arial" font-size="12">0</text>
<text x="2" y="481" fill="rgb(0,0,0)" font-family="Arial" font-size="12">1000000</text>
<text x="2" y="396" fill="rgb(0,0,0)" font-family="Arial" font-size="12">2000000</text>
<text x="2" y="310" fill="rgb(0,0,0)" font-family="Arial" font-size="12">3000000</text>
<text x="2" y="225" fill="rgb(0,0,0)" font-family="Arial" font-size="12">4000000</text>
<text x="2" y="139" fill="rgb(0,0,0)" font-family="Arial" font-size="12">5000000</text>
<text x="2" y="54" fill="rgb(0,0,0)" font-family="Arial" font-size="12">6000000</text>
<text x="286" y="30" fill="rgb(0,0,0)" font-family="Arial" font-size="12">Quality score distribution over all sequences</text>
<line x1="61" y1="560" x2="790" y2="560" stroke="rgb(0,0,0)" stroke-width="1"/>
<line x1="61" y1="560" x2="61" y2="40" stroke="rgb(0,0,0)" stroke-width="1"/>
<text x="281" y="595" fill="rgb(0,0,0)" font-family="Arial" font-size="12">Mean Sequence Quality (Phred Score)</text>
<text x="67" y="575" fill="rgb(0,0,0)" font-family="Arial" font-size="12">2</text>
<rect width="20" height="520" x="81" y="40" style="fill:rgb(230,230,230);stroke:none"/>
<text x="87" y="575" fill="rgb(0,0,0)" font-family="Arial" font-size="12">3</text>
<text x="107" y="575" fill="rgb(0,0,0)" font-family="Arial" font-size="12">4</text>
<rect width="20" height="520" x="121" y="40" style="fill:rgb(230,230,230);stroke:none"/>
<text x="127" y="575" fill="rgb(0,0,0)" font-family="Arial" font-size="12">5</text>
<text x="147" y="575" fill="rgb(0,0,0)" font-family="Arial" font-size="12">6</text>
<rect width="20" height="520" x="161" y="40" style="fill:rgb(230,230,230);stroke:none"/>
<text x="167" y="575" fill="rgb(0,0,0)" font-family="Arial" font-size="12">7</text>
<text x="187" y="575" fill="rgb(0,0,0)" font-family="Arial" font-size="12">8</text>
<rect width="20" height="520" x="201" y="40" style="fill:rgb(230,230,230);stroke:none"/>
<text x="207" y="575" fill="rgb(0,0,0)" font-family="Arial" font-size="12">9</text>
<text x="223" y="575" fill="rgb(0,0,0)" font-family="Arial" font-size="12">10</text>
<rect width="20" height="520" x="241" y="40" style="fill:rgb(230,230,230);stroke:none"/>
<text x="263" y="575" fill="rgb(0,0,0)" font-family="Arial" font-size="12">12</text>
<rect width="20" height="520" x="281" y="40" style="fill:rgb(230,230,230);stroke:none"/>
<text x="303" y="575" fill="rgb(0,0,0)" font-family="Arial" font-size="12">14</text>
<rect width="20" height="520" x="321" y="40" style="fill:rgb(230,230,230);stroke:none"/>
<text x="343" y="575" fill="rgb(0,0,0)" font-family="Arial" font-size="12">16</text>
<rect width="20" height="520" x="361" y="40" style="fill:rgb(230,230,230);stroke:none"/>
<text x="383" y="575" fill="rgb(0,0,0)" font-family="Arial" font-size="12">18</text>
<rect width="20" height="520" x="401" y="40" style="fill:rgb(230,230,230);stroke:none"/>
<text x="423" y="575" fill="rgb(0,0,0)" font-family="Arial" font-size="12">20</text>
<rect width="20" height="520" x="441" y="40" style="fill:rgb(230,230,230);stroke:none"/>
<text x="463" y="575" fill="rgb(0,0,0)" font-family="Arial" font-size="12">22</text>
<rect width="20" height="520" x="481" y="40" style="fill:rgb(230,230,230);stroke:none"/>
<text x="503" y="575" fill="rgb(0,0,0)" font-family="Arial" font-size="12">24</text>
<rect width="20" height="520" x="521" y="40" style="fill:rgb(230,230,230);stroke:none"/>
<text x="543" y="575" fill="rgb(0,0,0)" font-family="Arial" font-size="12">26</text>
<rect width="20" height="520" x="561" y="40" style="fill:rgb(230,230,230);stroke:none"/>
<text x="583" y="575" fill="rgb(0,0,0)" font-family="Arial" font-size="12">28</text>
<rect width="20" height="520" x="601" y="40" style="fill:rgb(230,230,230);stroke:none"/>
<text x="623" y="575" fill="rgb(0,0,0)" font-family="Arial" font-size="12">30</text>
<rect width="20" height="520" x="641" y="40" style="fill:rgb(230,230,230);stroke:none"/>
<text x="663" y="575" fill="rgb(0,0,0)" font-family="Arial" font-size="12">32</text>
<rect width="20" height="520" x="681" y="40" style="fill:rgb(230,230,230);stroke:none"/>
<text x="703" y="575" fill="rgb(0,0,0)" font-family="Arial" font-size="12">34</text>
<rect width="20" height="520" x="721" y="40" style="fill:rgb(230,230,230);stroke:none"/>
<text x="743" y="575" fill="rgb(0,0,0)" font-family="Arial" font-size="12">36</text>
<line x1="61" y1="560" x2="790" y2="560" stroke="rgb(180,180,180)" stroke-width="1"/>
<line x1="61" y1="475" x2="790" y2="475" stroke="rgb(180,180,180)" stroke-width="1"/>
<line x1="61" y1="390" x2="790" y2="390" stroke="rgb(180,180,180)" stroke-width="1"/>
<line x1="61" y1="304" x2="790" y2="304" stroke="rgb(180,180,180)" stroke-width="1"/>
<line x1="61" y1="219" x2="790" y2="219" stroke="rgb(180,180,180)" stroke-width="1"/>
<line x1="61" y1="133" x2="790" y2="133" stroke="rgb(180,180,180)" stroke-width="1"/>
<line x1="61" y1="48" x2="790" y2="48" stroke="rgb(180,180,180)" stroke-width="1"/>
<line x1="71" y1="312" x2="91" y2="522" stroke="rgb(136,34,85)" stroke-width="1"/>
<line x1="91" y1="522" x2="111" y2="523" stroke="rgb(136,34,85)" stroke-width="1"/>
<line x1="111" y1="523" x2="131" y2="525" stroke="rgb(136,34,85)" stroke-width="1"/>
<line x1="131" y1="525" x2="151" y2="532" stroke="rgb(136,34,85)" stroke-width="1"/>
<line x1="151" y1="532" x2="171" y2="536" stroke="rgb(136,34,85)" stroke-width="1"/>
<line x1="171" y1="536" x2="191" y2="541" stroke="rgb(136,34,85)" stroke-width="1"/>
<line x1="191" y1="541" x2="211" y2="545" stroke="rgb(136,34,85)" stroke-width="1"/>
<line x1="211" y1="545" x2="231" y2="543" stroke="rgb(136,34,85)" stroke-width="1"/>
<line x1="231" y1="543" x2="251" y2="535" stroke="rgb(136,34,85)" stroke-width="1"/>
<line x1="251" y1="535" x2="271" y2="530" stroke="rgb(136,34,85)" stroke-width="1"/>
<line x1="271" y1="530" x2="291" y2="527" stroke="rgb(136,34,85)" stroke-width="1"/>
<line x1="291" y1="527" x2="311" y2="525" stroke="rgb(136,34,85)" stroke-width="1"/>
<line x1="311" y1="525" x2="331" y2="525" stroke="rgb(136,34,85)" stroke-width="1"/>
<line x1="331" y1="525" x2="351" y2="524" stroke="rgb(136,34,85)" stroke-width="1"/>
<line x1="351" y1="524" x2="371" y2="521" stroke="rgb(136,34,85)" stroke-width="1"/>
<line x1="371" y1="521" x2="391" y2="516" stroke="rgb(136,34,85)" stroke-width="1"/>
<line x1="391" y1="516" x2="411" y2="509" stroke="rgb(136,34,85)" stroke-width="1"/>
<line x1="411" y1="509" x2="431" y2="501" stroke="rgb(136,34,85)" stroke-width="1"/>
<line x1="431" y1="501" x2="451" y2="493" stroke="rgb(136,34,85)" stroke-width="1"/>
<line x1="451" y1="493" x2="471" y2="477" stroke="rgb(136,34,85)" stroke-width="1"/>
<line x1="471" y1="477" x2="491" y2="452" stroke="rgb(136,34,85)" stroke-width="1"/>
<line x1="491" y1="452" x2="511" y2="430" stroke="rgb(136,34,85)" stroke-width="1"/>
<line x1="511" y1="430" x2="531" y2="407" stroke="rgb(136,34,85)" stroke-width="1"/>
<line x1="531" y1="407" x2="551" y2="382" stroke="rgb(136,34,85)" stroke-width="1"/>
<line x1="551" y1="382" x2="571" y2="351" stroke="rgb(136,34,85)" stroke-width="1"/>
<line x1="571" y1="351" x2="591" y2="315" stroke="rgb(136,34,85)" stroke-width="1"/>
<line x1="591" y1="315" x2="611" y2="276" stroke="rgb(136,34,85)" stroke-width="1"/>
<line x1="611" y1="276" x2="631" y2="235" stroke="rgb(136,34,85)" stroke-width="1"/>
<line x1="631" y1="235" x2="651" y2="190" stroke="rgb(136,34,85)" stroke-width="1"/>
<line x1="651" y1="190" x2="671" y2="141" stroke="rgb(136,34,85)" stroke-width="1"/>
<line x1="671" y1="141" x2="691" y2="87" stroke="rgb(136,34,85)" stroke-width="1"/>
<line x1="691" y1="87" x2="711" y2="40" stroke="rgb(136,34,85)" stroke-width="1"/>
<line x1="711" y1="40" x2="731" y2="61" stroke="rgb(136,34,85)" stroke-width="1"/>
<line x1="731" y1="61" x2="751" y2="352" stroke="rgb(136,34,85)" stroke-width="1"/>
<rect width="169" height="23" x="621" y="40" style="fill:rgb(255,255,255);stroke:none"/>
<rect width="169" height="23" x="621" y="40" rx="0" ry="0" style="fill:none;stroke-width:1;stroke:rgb(192,192,192)"/>
<text x="624" y="55" fill="rgb(136,34,85)" font-family="Arial" font-size="12" font-weight="bold">Average Quality per read</text>
</svg>
