<?xml version="1.0" standalone="no"?>
<!DOCTYPE svg PUBLIC "-//W3C//DTD SVG 1.1//EN" "http://www.w3.org/Graphics/SVG/1.1/DTD/svg11.dtd">
<svg width="800" height="600" version="1.1" xmlns="http://www.w3.org/2000/svg">
<rect width="800" height="600" x="0" y="0" style="fill:rgb(238,238,238);stroke:none"/>
<rect width="800" height="600" x="0" y="0" style="fill:rgb(255,255,255);stroke:none"/>
<text x="2" y="566" fill="rgb(0,0,0)" font-family="Arial" font-size="12">0</text>
<text x="2" y="511" fill="rgb(0,0,0)" font-family="Arial" font-size="12">1.0E7</text>
<text x="2" y="455" fill="rgb(0,0,0)" font-family="Arial" font-size="12">2.0E7</text>
<text x="2" y="400" fill="rgb(0,0,0)" font-family="Arial" font-size="12">3.0E7</text>
<text x="2" y="344" fill="rgb(0,0,0)" font-family="Arial" font-size="12">4.0E7</text>
<text x="2" y="289" fill="rgb(0,0,0)" font-family="Arial" font-size="12">5.0E7</text>
<text x="2" y="233" fill="rgb(0,0,0)" font-family="Arial" font-size="12">6.0E7</text>
<text x="2" y="178" fill="rgb(0,0,0)" font-family="Arial" font-size="12">7.0E7</text>
<text x="2" y="122" fill="rgb(0,0,0)" font-family="Arial" font-size="12">8.0E7</text>
<text x="2" y="67" fill="rgb(0,0,0)" font-family="Arial" font-size="12">9.0E7</text>
<text x="252" y="30" fill="rgb(0,0,0)" font-family="Arial" font-size="12">Distribution of sequence lengths over all sequences</text>
<line x1="41" y1="560" x2="790" y2="560" stroke="rgb(0,0,0)" stroke-width="1"/>
<line x1="41" y1="560" x2="41" y2="40" stroke="rgb(0,0,0)" stroke-width="1"/>
<text x="330" y="595" fill="rgb(0,0,0)" font-family="Arial" font-size="12">Sequence Length (bp)</text>
<text x="157" y="575" fill="rgb(0,0,0)" font-family="Arial" font-size="12">49</text>
<rect width="249" height="520" x="290" y="40" style="fill:rgb(230,230,230);stroke:none"/>
<text x="406" y="575" fill="rgb(0,0,0)" font-family="Arial" font-size="12">50</text>
<text x="655" y="575" fill="rgb(0,0,0)" font-family="Arial" font-size="12">51</text>
<line x1="41" y1="560" x2="790" y2="560" stroke="rgb(180,180,180)" stroke-width="1"/>
<line x1="41" y1="505" x2="790" y2="505" stroke="rgb(180,180,180)" stroke-width="1"/>
<line x1="41" y1="449" x2="790" y2="449" stroke="rgb(180,180,180)" stroke-width="1"/>
<line x1="41" y1="394" x2="790" y2="394" stroke="rgb(180,180,180)" stroke-width="1"/>
<line x1="41" y1="338" x2="790" y2="338" stroke="rgb(180,180,180)" stroke-width="1"/>
<line x1="41" y1="283" x2="790" y2="283" stroke="rgb(180,180,180)" stroke-width="1"/>
<line x1="41" y1="227" x2="790" y2="227" stroke="rgb(180,180,180)" stroke-width="1"/>
<line x1="41" y1="172" x2="790" y2="172" stroke="rgb(180,180,180)" stroke-width="1"/>
<line x1="41" y1="116" x2="790" y2="116" stroke="rgb(180,180,180)" stroke-width="1"/>
<line x1="41" y1="61" x2="790" y2="61" stroke="rgb(180,180,180)" stroke-width="1"/>
<line x1="165" y1="560" x2="414" y2="40" stroke="rgb(136,34,85)" stroke-width="1"/>
<line x1="414" y1="40" x2="663" y2="560" stroke="rgb(136,34,85)" stroke-width="1"/>
<rect width="121" height="23" x="669" y="40" style="fill:rgb(255,255,255);stroke:none"/>
<rect width="121" height="23" x="669" y="40" rx="0" ry="0" style="fill:none;stroke-width:1;stroke:rgb(192,192,192)"/>
<text x="672" y="55" fill="rgb(136,34,85)" font-family="Arial" font-size="12" font-weight="bold">Sequence Length</text>
</svg>
