<?xml version="1.0" standalone="no"?>
<!DOCTYPE svg PUBLIC "-//W3C//DTD SVG 1.1//EN" "http://www.w3.org/Graphics/SVG/1.1/DTD/svg11.dtd">
<svg width="800" height="600" version="1.1" xmlns="http://www.w3.org/2000/svg">
<rect width="800" height="600" x="0" y="0" style="fill:rgb(238,238,238);stroke:none"/>
<rect width="800" height="600" x="0" y="0" style="fill:rgb(255,255,255);stroke:none"/>
<text x="2" y="566" fill="rgb(0,0,0)" font-family="Arial" font-size="12">0</text>
<text x="2" y="506" fill="rgb(0,0,0)" font-family="Arial" font-size="12">5000000</text>
<text x="2" y="445" fill="rgb(0,0,0)" font-family="Arial" font-size="12">1.0E7</text>
<text x="2" y="384" fill="rgb(0,0,0)" font-family="Arial" font-size="12">1.5E7</text>
<text x="2" y="324" fill="rgb(0,0,0)" font-family="Arial" font-size="12">2.0E7</text>
<text x="2" y="263" fill="rgb(0,0,0)" font-family="Arial" font-size="12">2.5E7</text>
<text x="2" y="202" fill="rgb(0,0,0)" font-family="Arial" font-size="12">3.0E7</text>
<text x="2" y="141" fill="rgb(0,0,0)" font-family="Arial" font-size="12">3.5E7</text>
<text x="2" y="81" fill="rgb(0,0,0)" font-family="Arial" font-size="12">4.0E7</text>
<text x="286" y="30" fill="rgb(0,0,0)" font-family="Arial" font-size="12">Quality score distribution over all sequences</text>
<line x1="61" y1="560" x2="790" y2="560" stroke="rgb(0,0,0)" stroke-width="1"/>
<line x1="61" y1="560" x2="61" y2="40" stroke="rgb(0,0,0)" stroke-width="1"/>
<text x="281" y="595" fill="rgb(0,0,0)" font-family="Arial" font-size="12">Mean Sequence Quality (Phred Score)</text>
<text x="67" y="575" fill="rgb(0,0,0)" font-family="Arial" font-size="12">2</text>
<rect width="20" height="520" x="81" y="40" style="fill:rgb(230,230,230);stroke:none"/>
<text x="87" y="575" fill="rgb(0,0,0)" font-family="Arial" font-size="12">3</text>
<text x="107" y="575" fill="rgb(0,0,0)" font-family="Arial" font-size="12">4</text>
<rect width="20" height="520" x="121" y="40" style="fill:rgb(230,230,230);stroke:none"/>
<text x="127" y="575" fill="rgb(0,0,0)" font-family="Arial" font-size="12">5</text>
<text x="147" y="575" fill="rgb(0,0,0)" font-family="Arial" font-size="12">6</text>
<rect width="20" height="520" x="161" y="40" style="fill:rgb(230,230,230);stroke:none"/>
<text x="167" y="575" fill="rgb(0,0,0)" font-family="Arial" font-size="12">7</text>
<text x="187" y="575" fill="rgb(0,0,0)" font-family="Arial" font-size="12">8</text>
<rect width="20" height="520" x="201" y="40" style="fill:rgb(230,230,230);stroke:none"/>
<text x="207" y="575" fill="rgb(0,0,0)" font-family="Arial" font-size="12">9</text>
<text x="223" y="575" fill="rgb(0,0,0)" font-family="Arial" font-size="12">10</text>
<rect width="20" height="520" x="241" y="40" style="fill:rgb(230,230,230);stroke:none"/>
<text x="263" y="575" fill="rgb(0,0,0)" font-family="Arial" font-size="12">12</text>
<rect width="20" height="520" x="281" y="40" style="fill:rgb(230,230,230);stroke:none"/>
<text x="303" y="575" fill="rgb(0,0,0)" font-family="Arial" font-size="12">14</text>
<rect width="20" height="520" x="321" y="40" style="fill:rgb(230,230,230);stroke:none"/>
<text x="343" y="575" fill="rgb(0,0,0)" font-family="Arial" font-size="12">16</text>
<rect width="20" height="520" x="361" y="40" style="fill:rgb(230,230,230);stroke:none"/>
<text x="383" y="575" fill="rgb(0,0,0)" font-family="Arial" font-size="12">18</text>
<rect width="20" height="520" x="401" y="40" style="fill:rgb(230,230,230);stroke:none"/>
<text x="423" y="575" fill="rgb(0,0,0)" font-family="Arial" font-size="12">20</text>
<rect width="20" height="520" x="441" y="40" style="fill:rgb(230,230,230);stroke:none"/>
<text x="463" y="575" fill="rgb(0,0,0)" font-family="Arial" font-size="12">22</text>
<rect width="20" height="520" x="481" y="40" style="fill:rgb(230,230,230);stroke:none"/>
<text x="503" y="575" fill="rgb(0,0,0)" font-family="Arial" font-size="12">24</text>
<rect width="20" height="520" x="521" y="40" style="fill:rgb(230,230,230);stroke:none"/>
<text x="543" y="575" fill="rgb(0,0,0)" font-family="Arial" font-size="12">26</text>
<rect width="20" height="520" x="561" y="40" style="fill:rgb(230,230,230);stroke:none"/>
<text x="583" y="575" fill="rgb(0,0,0)" font-family="Arial" font-size="12">28</text>
<rect width="20" height="520" x="601" y="40" style="fill:rgb(230,230,230);stroke:none"/>
<text x="623" y="575" fill="rgb(0,0,0)" font-family="Arial" font-size="12">30</text>
<rect width="20" height="520" x="641" y="40" style="fill:rgb(230,230,230);stroke:none"/>
<text x="663" y="575" fill="rgb(0,0,0)" font-family="Arial" font-size="12">32</text>
<rect width="20" height="520" x="681" y="40" style="fill:rgb(230,230,230);stroke:none"/>
<text x="703" y="575" fill="rgb(0,0,0)" font-family="Arial" font-size="12">34</text>
<rect width="20" height="520" x="721" y="40" style="fill:rgb(230,230,230);stroke:none"/>
<text x="743" y="575" fill="rgb(0,0,0)" font-family="Arial" font-size="12">36</text>
<line x1="61" y1="560" x2="790" y2="560" stroke="rgb(180,180,180)" stroke-width="1"/>
<line x1="61" y1="500" x2="790" y2="500" stroke="rgb(180,180,180)" stroke-width="1"/>
<line x1="61" y1="439" x2="790" y2="439" stroke="rgb(180,180,180)" stroke-width="1"/>
<line x1="61" y1="378" x2="790" y2="378" stroke="rgb(180,180,180)" stroke-width="1"/>
<line x1="61" y1="318" x2="790" y2="318" stroke="rgb(180,180,180)" stroke-width="1"/>
<line x1="61" y1="257" x2="790" y2="257" stroke="rgb(180,180,180)" stroke-width="1"/>
<line x1="61" y1="196" x2="790" y2="196" stroke="rgb(180,180,180)" stroke-width="1"/>
<line x1="61" y1="135" x2="790" y2="135" stroke="rgb(180,180,180)" stroke-width="1"/>
<line x1="61" y1="75" x2="790" y2="75" stroke="rgb(180,180,180)" stroke-width="1"/>
<line x1="71" y1="545" x2="91" y2="557" stroke="rgb(136,34,85)" stroke-width="1"/>
<line x1="91" y1="557" x2="111" y2="556" stroke="rgb(136,34,85)" stroke-width="1"/>
<line x1="111" y1="556" x2="131" y2="557" stroke="rgb(136,34,85)" stroke-width="1"/>
<line x1="131" y1="557" x2="151" y2="558" stroke="rgb(136,34,85)" stroke-width="1"/>
<line x1="151" y1="558" x2="171" y2="558" stroke="rgb(136,34,85)" stroke-width="1"/>
<line x1="171" y1="558" x2="191" y2="559" stroke="rgb(136,34,85)" stroke-width="1"/>
<line x1="191" y1="559" x2="211" y2="559" stroke="rgb(136,34,85)" stroke-width="1"/>
<line x1="211" y1="559" x2="231" y2="559" stroke="rgb(136,34,85)" stroke-width="1"/>
<line x1="231" y1="559" x2="251" y2="558" stroke="rgb(136,34,85)" stroke-width="1"/>
<line x1="251" y1="558" x2="271" y2="558" stroke="rgb(136,34,85)" stroke-width="1"/>
<line x1="271" y1="558" x2="291" y2="558" stroke="rgb(136,34,85)" stroke-width="1"/>
<line x1="291" y1="558" x2="311" y2="558" stroke="rgb(136,34,85)" stroke-width="1"/>
<line x1="311" y1="558" x2="331" y2="558" stroke="rgb(136,34,85)" stroke-width="1"/>
<line x1="331" y1="558" x2="351" y2="558" stroke="rgb(136,34,85)" stroke-width="1"/>
<line x1="351" y1="558" x2="371" y2="557" stroke="rgb(136,34,85)" stroke-width="1"/>
<line x1="371" y1="557" x2="391" y2="557" stroke="rgb(136,34,85)" stroke-width="1"/>
<line x1="391" y1="557" x2="411" y2="556" stroke="rgb(136,34,85)" stroke-width="1"/>
<line x1="411" y1="556" x2="431" y2="556" stroke="rgb(136,34,85)" stroke-width="1"/>
<line x1="431" y1="556" x2="451" y2="554" stroke="rgb(136,34,85)" stroke-width="1"/>
<line x1="451" y1="554" x2="471" y2="553" stroke="rgb(136,34,85)" stroke-width="1"/>
<line x1="471" y1="553" x2="491" y2="552" stroke="rgb(136,34,85)" stroke-width="1"/>
<line x1="491" y1="552" x2="511" y2="551" stroke="rgb(136,34,85)" stroke-width="1"/>
<line x1="511" y1="551" x2="531" y2="549" stroke="rgb(136,34,85)" stroke-width="1"/>
<line x1="531" y1="549" x2="551" y2="547" stroke="rgb(136,34,85)" stroke-width="1"/>
<line x1="551" y1="547" x2="571" y2="545" stroke="rgb(136,34,85)" stroke-width="1"/>
<line x1="571" y1="545" x2="591" y2="542" stroke="rgb(136,34,85)" stroke-width="1"/>
<line x1="591" y1="542" x2="611" y2="536" stroke="rgb(136,34,85)" stroke-width="1"/>
<line x1="611" y1="536" x2="631" y2="530" stroke="rgb(136,34,85)" stroke-width="1"/>
<line x1="631" y1="530" x2="651" y2="524" stroke="rgb(136,34,85)" stroke-width="1"/>
<line x1="651" y1="524" x2="671" y2="515" stroke="rgb(136,34,85)" stroke-width="1"/>
<line x1="671" y1="515" x2="691" y2="497" stroke="rgb(136,34,85)" stroke-width="1"/>
<line x1="691" y1="497" x2="711" y2="458" stroke="rgb(136,34,85)" stroke-width="1"/>
<line x1="711" y1="458" x2="731" y2="336" stroke="rgb(136,34,85)" stroke-width="1"/>
<line x1="731" y1="336" x2="751" y2="40" stroke="rgb(136,34,85)" stroke-width="1"/>
<rect width="169" height="23" x="621" y="40" style="fill:rgb(255,255,255);stroke:none"/>
<rect width="169" height="23" x="621" y="40" rx="0" ry="0" style="fill:none;stroke-width:1;stroke:rgb(192,192,192)"/>
<text x="624" y="55" fill="rgb(136,34,85)" font-family="Arial" font-size="12" font-weight="bold">Average Quality per read</text>
</svg>
